    <svg xmlns="http://www.w3.org/2000/svg" width="1em" height="2.2em" viewBox="0 0 14 34" fill="currentColor">
        <path d="M6.86696 20.0879C6.70269 20.0879 6.55211 20.0229 6.41522 19.893L1.84641 15.1634C1.73005 15.0471 1.67188 14.9103 1.67188 14.753C1.67188 14.5889 1.72834 14.4504 1.84128 14.3375C1.95422 14.2247 2.09282 14.1682 2.25709 14.1682C2.41452 14.1682 2.55483 14.2264 2.67804 14.3427L6.87723 18.6824L11.0662 14.3427C11.1894 14.2264 11.3297 14.1682 11.4871 14.1682C11.6514 14.1682 11.79 14.2247 11.9029 14.3375C12.0158 14.4504 12.0723 14.5889 12.0723 14.753C12.0723 14.9103 12.0141 15.0471 11.8978 15.1634L7.32898 19.893C7.19893 20.0229 7.04492 20.0879 6.86696 20.0879Z" fill="currentColor" fill-opacity="0.8"/>
    </svg>