<svg width="36" height="35" viewBox="0 0 36 35" fill="none" xmlns="http://www.w3.org/2000/svg">
<path fill-rule="evenodd" clip-rule="evenodd" d="M18.5201 32.09C18.4742 32.09 18.4298 32.09 18.3824 32.0885C14.3756 32.0541 10.6355 30.4465 7.8505 27.5669C2.57737 22.1102 2.41245 13.0797 7.48194 7.43658C9.06087 5.67696 10.9883 4.3533 13.2083 3.50288C13.7317 3.29924 14.3268 3.42544 14.727 3.82125C15.1285 4.21563 15.2619 4.8079 15.0683 5.33565C13.465 9.71678 14.5563 14.673 17.8518 17.9613C21.1459 21.2497 26.1165 22.3411 30.5119 20.7406C31.0397 20.5456 31.632 20.6832 32.0249 21.0819C32.4193 21.4835 32.5426 22.0786 32.3418 22.6021C31.5904 24.5567 30.4632 26.292 28.9918 27.759C26.191 30.5555 22.4753 32.09 18.5201 32.09" fill="#231F20"/>
<mask id="mask0_3335_8802" style="mask-type:luminance" maskUnits="userSpaceOnUse" x="3" y="3" width="30" height="30">
<path fill-rule="evenodd" clip-rule="evenodd" d="M18.5201 32.09C18.4742 32.09 18.4298 32.09 18.3824 32.0885C14.3756 32.0541 10.6355 30.4465 7.8505 27.5669C2.57737 22.1102 2.41245 13.0797 7.48194 7.43658C9.06087 5.67696 10.9883 4.3533 13.2083 3.50288C13.7317 3.29924 14.3268 3.42544 14.727 3.82125C15.1285 4.21563 15.2619 4.8079 15.0683 5.33565C13.465 9.71678 14.5563 14.673 17.8518 17.9613C21.1459 21.2497 26.1165 22.3411 30.5119 20.7406C31.0397 20.5456 31.632 20.6832 32.0249 21.0819C32.4193 21.4835 32.5426 22.0786 32.3418 22.6021C31.5904 24.5567 30.4632 26.292 28.9918 27.759C26.191 30.5555 22.4753 32.09 18.5201 32.09" fill="white"/>
</mask>
<g mask="url(#mask0_3335_8802)">
<rect x="0.890625" y="0.540039" width="34.4181" height="34.4181" fill="#EACA22"/>
</g>
</svg>
