<svg width="42" height="45" viewBox="0 0 42 45" fill="none" xmlns="http://www.w3.org/2000/svg">
<g filter="url(#filter0_d_3108_15230)">
<path fill-rule="evenodd" clip-rule="evenodd" d="M20.5346 9.74208C21.3434 9.74208 21.9998 9.08714 21.9998 8.2769V5.34653C21.9998 4.53628 21.3434 3.88135 20.5346 3.88135C19.7259 3.88135 19.0695 4.53628 19.0695 5.34653V8.2769C19.0695 9.08714 19.7259 9.74208 20.5346 9.74208ZM20.5354 21.4633C18.9193 21.4633 17.605 20.1491 17.605 18.533C17.605 16.9169 18.9193 15.6026 20.5354 15.6026C22.1515 15.6026 23.4658 16.9169 23.4658 18.533C23.4658 20.1491 22.1515 21.4633 20.5354 21.4633ZM20.5354 12.6722C17.3032 12.6722 14.6747 15.3008 14.6747 18.533C14.6747 21.7651 17.3032 24.3937 20.5354 24.3937C23.7676 24.3937 26.3961 21.7651 26.3961 18.533C26.3961 15.3008 23.7676 12.6722 20.5354 12.6722ZM30.7909 17.068H33.7213C34.5301 17.068 35.1865 17.7229 35.1865 18.5332C35.1865 19.3434 34.5301 19.9984 33.7213 19.9984H30.7909C29.9821 19.9984 29.3257 19.3434 29.3257 18.5332C29.3257 17.7229 29.9821 17.068 30.7909 17.068ZM11.7435 18.5332C11.7435 17.7229 11.0871 17.068 10.2784 17.068H7.348C6.53921 17.068 5.88281 17.7229 5.88281 18.5332C5.88281 19.3434 6.53921 19.9984 7.348 19.9984H10.2784C11.0871 19.9984 11.7435 19.3434 11.7435 18.5332ZM9.99472 8.35503C10.5573 7.77481 11.4848 7.75723 12.0665 8.3184L14.1749 10.355C14.7566 10.9162 14.7727 11.8451 14.21 12.4268C13.9229 12.7242 13.5405 12.8736 13.1566 12.8736C12.7903 12.8736 12.424 12.7389 12.1383 12.4634L10.0299 10.4268C9.44821 9.86563 9.43209 8.9367 9.99472 8.35503ZM27.9121 12.8744C28.2784 12.8744 28.6447 12.7381 28.9304 12.4641L31.0388 10.4275C31.6205 9.86488 31.6366 8.93595 31.074 8.35574C30.5128 7.77553 29.5868 7.75795 29.0022 8.31911L26.8938 10.3543C26.3121 10.9169 26.296 11.8458 26.8586 12.426C27.1458 12.7235 27.5282 12.8744 27.9121 12.8744ZM19.0695 28.7895C19.0695 27.9792 19.7259 27.3243 20.5346 27.3243C21.3434 27.3243 21.9998 27.9792 21.9998 28.7895V31.7198C21.9998 32.5301 21.3434 33.185 20.5346 33.185C19.7259 33.185 19.0695 32.5301 19.0695 31.7198V28.7895ZM28.9304 24.6028C28.3487 24.0417 27.4213 24.0592 26.8586 24.6394C26.296 25.2211 26.3121 26.15 26.8938 26.7112L29.0022 28.7478C29.2879 29.0233 29.6542 29.1581 30.0205 29.1581C30.4044 29.1581 30.7868 29.0086 31.074 28.7112C31.6366 28.1295 31.6205 27.2006 31.0388 26.6394L28.9304 24.6028ZM10.0299 26.6394L12.1383 24.6028C12.7214 24.0417 13.6489 24.0592 14.21 24.6394C14.7727 25.2211 14.7566 26.15 14.1749 26.7112L12.0665 28.7478C11.7808 29.0233 11.4145 29.1581 11.0482 29.1581C10.6643 29.1581 10.2819 29.0086 9.99472 28.7112C9.43209 28.1295 9.44821 27.2006 10.0299 26.6394Z" fill="#8484A9"/>
<mask id="mask0_3108_15230" style="mask-type:luminance" maskUnits="userSpaceOnUse" x="5" y="3" width="31" height="31">
<path fill-rule="evenodd" clip-rule="evenodd" d="M20.5346 9.74208C21.3434 9.74208 21.9998 9.08714 21.9998 8.2769V5.34653C21.9998 4.53628 21.3434 3.88135 20.5346 3.88135C19.7259 3.88135 19.0695 4.53628 19.0695 5.34653V8.2769C19.0695 9.08714 19.7259 9.74208 20.5346 9.74208ZM20.5354 21.4633C18.9193 21.4633 17.605 20.1491 17.605 18.533C17.605 16.9169 18.9193 15.6026 20.5354 15.6026C22.1515 15.6026 23.4658 16.9169 23.4658 18.533C23.4658 20.1491 22.1515 21.4633 20.5354 21.4633ZM20.5354 12.6722C17.3032 12.6722 14.6747 15.3008 14.6747 18.533C14.6747 21.7651 17.3032 24.3937 20.5354 24.3937C23.7676 24.3937 26.3961 21.7651 26.3961 18.533C26.3961 15.3008 23.7676 12.6722 20.5354 12.6722ZM30.7909 17.068H33.7213C34.5301 17.068 35.1865 17.7229 35.1865 18.5332C35.1865 19.3434 34.5301 19.9984 33.7213 19.9984H30.7909C29.9821 19.9984 29.3257 19.3434 29.3257 18.5332C29.3257 17.7229 29.9821 17.068 30.7909 17.068ZM11.7435 18.5332C11.7435 17.7229 11.0871 17.068 10.2784 17.068H7.348C6.53921 17.068 5.88281 17.7229 5.88281 18.5332C5.88281 19.3434 6.53921 19.9984 7.348 19.9984H10.2784C11.0871 19.9984 11.7435 19.3434 11.7435 18.5332ZM9.99472 8.35503C10.5573 7.77481 11.4848 7.75723 12.0665 8.3184L14.1749 10.355C14.7566 10.9162 14.7727 11.8451 14.21 12.4268C13.9229 12.7242 13.5405 12.8736 13.1566 12.8736C12.7903 12.8736 12.424 12.7389 12.1383 12.4634L10.0299 10.4268C9.44821 9.86563 9.43209 8.9367 9.99472 8.35503ZM27.9121 12.8744C28.2784 12.8744 28.6447 12.7381 28.9304 12.4641L31.0388 10.4275C31.6205 9.86488 31.6366 8.93595 31.074 8.35574C30.5128 7.77553 29.5868 7.75795 29.0022 8.31911L26.8938 10.3543C26.3121 10.9169 26.296 11.8458 26.8586 12.426C27.1458 12.7235 27.5282 12.8744 27.9121 12.8744ZM19.0695 28.7895C19.0695 27.9792 19.7259 27.3243 20.5346 27.3243C21.3434 27.3243 21.9998 27.9792 21.9998 28.7895V31.7198C21.9998 32.5301 21.3434 33.185 20.5346 33.185C19.7259 33.185 19.0695 32.5301 19.0695 31.7198V28.7895ZM28.9304 24.6028C28.3487 24.0417 27.4213 24.0592 26.8586 24.6394C26.296 25.2211 26.3121 26.15 26.8938 26.7112L29.0022 28.7478C29.2879 29.0233 29.6542 29.1581 30.0205 29.1581C30.4044 29.1581 30.7868 29.0086 31.074 28.7112C31.6366 28.1295 31.6205 27.2006 31.0388 26.6394L28.9304 24.6028ZM10.0299 26.6394L12.1383 24.6028C12.7214 24.0417 13.6489 24.0592 14.21 24.6394C14.7727 25.2211 14.7566 26.15 14.1749 26.7112L12.0665 28.7478C11.7808 29.0233 11.4145 29.1581 11.0482 29.1581C10.6643 29.1581 10.2819 29.0086 9.99472 28.7112C9.43209 28.1295 9.44821 27.2006 10.0299 26.6394Z" fill="white"/>
</mask>
<g mask="url(#mask0_3108_15230)">
<rect x="2.95117" y="0.950684" width="35.1644" height="35.1644" fill="#5CF8D2"/>
</g>
</g>
<defs>
<filter id="filter0_d_3108_15230" x="-2.90956" y="0.950684" width="46.8855" height="46.886" filterUnits="userSpaceOnUse" color-interpolation-filters="sRGB">
<feFlood flood-opacity="0" result="BackgroundImageFix"/>
<feColorMatrix in="SourceAlpha" type="matrix" values="0 0 0 0 0 0 0 0 0 0 0 0 0 0 0 0 0 0 127 0" result="hardAlpha"/>
<feOffset dy="5.86073"/>
<feGaussianBlur stdDeviation="2.93037"/>
<feComposite in2="hardAlpha" operator="out"/>
<feColorMatrix type="matrix" values="0 0 0 0 0 0 0 0 0 0 0 0 0 0 0 0 0 0 0.25 0"/>
<feBlend mode="normal" in2="BackgroundImageFix" result="effect1_dropShadow_3108_15230"/>
<feBlend mode="normal" in="SourceGraphic" in2="effect1_dropShadow_3108_15230" result="shape"/>
</filter>
</defs>
</svg>
