<svg width="180" height="65" viewBox="0 0 180 65" fill="none" xmlns="http://www.w3.org/2000/svg">
<rect x="0.964844" y="14.7617" width="21.286" height="21.286" fill="#FF7070"/>
<rect x="10.8984" y="28.9526" width="21.286" height="21.286" fill="#31313D"/>
<path d="M76.6763 17.7302L71.5543 20.9543C70.8683 19.8796 70.2738 19.1021 69.7708 18.5991C68.9705 17.7759 67.9415 17.3643 66.7296 17.3643C65.472 17.3643 64.4888 17.7759 63.7799 18.5762C63.2083 19.2622 62.911 20.0168 62.911 20.8399C62.911 22.1204 64.0314 23.1723 66.2723 24.0183L69.1534 25.1159C72.4003 26.3277 74.5955 27.8598 75.7616 29.689C76.5619 30.9924 76.9735 32.4329 76.9735 34.0564C76.9735 37.0061 75.8531 39.4985 73.6122 41.4878C71.5543 43.3171 69.0619 44.2317 66.1351 44.2317C63.7342 44.2317 61.6305 43.5915 59.7784 42.311C57.629 40.8247 56.1427 38.2866 55.3196 34.6509L61.4247 33.0274C61.8592 34.811 62.2936 36 62.6824 36.5716C63.5284 37.7835 64.6945 38.4009 66.2037 38.4009C67.5985 38.4009 68.7189 37.9207 69.5878 36.9375C70.3195 36.1143 70.6854 35.1768 70.6854 34.125C70.6854 33.4848 70.5253 32.936 70.1824 32.5015C69.6564 31.7927 68.4217 31.0838 66.4781 30.3521L63.7342 29.3003C59.0467 27.5168 56.6915 24.6814 56.6915 20.7942C56.6915 18.1189 57.6747 15.9009 59.6641 14.1402C61.6077 12.4253 64.0314 11.5564 66.8897 11.5564C70.0452 11.5564 72.6519 12.6997 74.7098 15.0091C75.3272 15.6951 75.9903 16.6098 76.6763 17.7302ZM87.0802 12.2881V43.5H81.0894V12.2881H87.0802ZM91.8134 54.4299L97.1183 42.4482L88.9095 22.7378H95.3348L100.365 35.1311L105.876 22.7378H112.278L98.1244 54.4299H91.8134ZM114.839 12.2881H131.714V18.0503H121.082V24.7957H130.777V30.5808H121.082V43.5H114.839V12.2881ZM144.702 22.0061C147.949 22.0061 150.67 23.2409 152.888 25.6875C154.74 27.7683 155.678 30.2378 155.678 33.096C155.678 36.4345 154.466 39.2012 152.065 41.3735C149.961 43.2713 147.446 44.2317 144.519 44.2317C141.135 44.2317 138.345 42.997 136.15 40.5503C134.298 38.4695 133.361 35.9543 133.361 33.0274C133.361 29.7805 134.573 27.0595 136.974 24.8643C139.054 22.9665 141.638 22.0061 144.702 22.0061ZM144.474 27.4253C143.536 27.4253 142.644 27.6768 141.844 28.157C140.22 29.1402 139.397 30.7637 139.397 33.0503C139.397 35.0396 139.969 36.5259 141.135 37.5549C142.095 38.4009 143.216 38.8125 144.519 38.8125C146.028 38.8125 147.286 38.2866 148.269 37.2119C149.184 36.2058 149.641 34.8338 149.641 33.0732C149.641 31.1524 149.07 29.689 147.903 28.6829C146.966 27.8369 145.823 27.4253 144.474 27.4253ZM178.589 22.7378L170.838 32.753L179.138 43.5H171.958L167.248 37.3262L162.538 43.5H155.335L163.658 32.7759L155.906 22.7378H163.109L167.271 28.2256L171.455 22.7378H178.589Z" fill="#31313D"/>
<path d="M168.042 13.5229H172.451V14.6128H170.831V18.9878H169.661V14.6128H168.042V13.5229ZM177.459 13.5229H178.442V18.9878H177.279V15.5732L175.679 17.9131L174.086 15.5732V18.9878H172.927V13.5229H173.903L175.679 16.1143L177.459 13.5229Z" fill="#F46B78"/>
</svg>
